# xmcd CD database file
#
# Track frame offsets:
#	150
#	21502
#	43666
#	70581
#	88938
#	105552
#	144054
#	168044
#	186866
#
# Disc length: 2833 seconds
#
# Revision: 0
# Processed by: cddbd v1.5.2PL0 Copyright (c) Steve Scherf et al.
# Submitted via: CDex 1.70beta3
#
DISCID=6e0b0f09
DTITLE=Mike Petrone - A Lot Like Us
DYEAR=1996
DGENRE=Jazz
TTITLE0=Yesterdays
TTITLE1=Don't Get Around Much Anymore
TTITLE2=Watch What Happens
TTITLE3=Jeepers Creepers
TTITLE4=Lotus Blossom
TTITLE5=My Foolish Heart
TTITLE6=Somewhere
TTITLE7=Freddie Freeloader
TTITLE8=Can't Help Lovin' That Man of Mine
EXTD=YEAR: 1996
EXTT0=
EXTT1=
EXTT2=
EXTT3=
EXTT4=
EXTT5=
EXTT6=
EXTT7=
EXTT8=
PLAYORDER=
